# xmcd CD database file
#
# Track frame offsets:
#	150
#	29269
#	44893
#	84312
#	116493
#	151241
#
# Disc length: 2492 seconds
#
# Revision: 0
# Processed by: cddbd v1.5.1PL0 Copyright (c) Steve Scherf et al.
# Submitted via: CDex 1.50Beta7
#
DISCID=4309ba06
DTITLE=Piotr Wojtasik - Hope
DYEAR=2001
DGENRE=Jazz
TTITLE0=Hope
TTITLE1=Quest
TTITLE2=Village
TTITLE3=Taurus People
TTITLE4=Rose Tattoo
TTITLE5=Believe, for It Is True!
EXTD=YEAR: 2001
EXTT0=
EXTT1=
EXTT2=
EXTT3=
EXTT4=
EXTT5=
PLAYORDER=
